<svg id="Layer_1" data-name="Layer 1" xmlns="http://www.w3.org/2000/svg" viewBox="0 0 512 455.52"><defs><style>.cls-1{fill:red;}</style></defs><title>heart</title><path class="cls-1" d="M256,455.52a30,30,0,0,1-19.79-7.44C215.52,430,195.58,413,178,398l-0.09-.08C126.32,354,81.77,316,50.78,278.61,16.14,236.81,0,197.17,0,153.87,0,111.8,14.43,73,40.62,44.58,67.12,15.83,103.49,0,143,0c29.55,0,56.62,9.34,80.45,27.77a164.59,164.59,0,0,1,32.52,34,164.6,164.6,0,0,1,32.53-34C312.35,9.34,339.42,0,369,0c39.54,0,75.91,15.83,102.41,44.58C497.58,73,512,111.8,512,153.87c0,43.3-16.13,82.94-50.78,124.74-31,37.4-75.53,75.36-127.11,119.31-17.62,15-37.6,32-58.33,50.17A30,30,0,0,1,256,455.52ZM143,30C112,30,83.43,42.39,62.66,64.91,41.59,87.76,30,119.36,30,153.87c0,36.42,13.54,69,43.88,105.61,29.33,35.39,73,72.57,123.48,115.63l0.09,0.08c17.66,15.05,37.68,32.11,58.52,50.33,21-18.25,41-35.34,58.71-50.42C365.18,332,408.8,294.87,438.13,259.48,468.48,222.86,482,190.29,482,153.87c0-34.52-11.61-66.11-32.68-89C428.58,42.39,400,30,369,30c-22.76,0-43.65,7.23-62.1,21.5-16.44,12.72-27.89,28.8-34.61,40a18.93,18.93,0,0,1-32.52,0c-6.71-11.25-18.16-27.33-34.61-40C186.68,37.23,165.79,30,143,30Z"/></svg>