<svg id="Capa_1" data-name="Capa 1" xmlns="http://www.w3.org/2000/svg" viewBox="0 0 416.02 512.02"><defs><style>.cls-1{fill:red;}</style></defs><title>martini filled</title><path class="cls-1" d="M460.51,90A16,16,0,0,0,448,64H375.1l22.78-40.1A16,16,0,1,0,370.08,8.12L338.3,64H64A16,16,0,0,0,51.52,90L240,325.62V480H176a16,16,0,0,0,0,32H336a16,16,0,0,0,0-32H272V325.62ZM320.13,96L300.8,130a46.92,46.92,0,0,0-12.8-2,48.26,48.26,0,1,0,39.14,20.38L356.93,96h-36.8ZM304,176a16,16,0,1,1-16-16A16,16,0,0,1,304,176Z" transform="translate(-48 0)"/></svg>